<?xml version="1.0" encoding="UTF-8" standalone="no"?>
<!-- Created with Inkscape (http://www.inkscape.org/) -->

<svg
   xmlns:dc="http://purl.org/dc/elements/1.1/"
   xmlns:cc="http://creativecommons.org/ns#"
   xmlns:rdf="http://www.w3.org/1999/02/22-rdf-syntax-ns#"
   xmlns:svg="http://www.w3.org/2000/svg"
   xmlns="http://www.w3.org/2000/svg"
   xmlns:sodipodi="http://sodipodi.sourceforge.net/DTD/sodipodi-0.dtd"
   xmlns:inkscape="http://www.inkscape.org/namespaces/inkscape"
   width="512"
   height="512"
   viewBox="0 0 512 512"
   version="1.1"
   id="svg8"
   inkscape:version="0.92.3 (2405546, 2018-03-11)"
   sodipodi:docname="juke-bot-plain.svg">
  <defs
     id="defs2">
    <mask
       maskUnits="userSpaceOnUse"
       id="mask4539">
      <path
         sodipodi:nodetypes="cccccccccc"
         inkscape:connector-curvature="0"
         id="path4541"
         d="m 214.55176,217.22461 c -37.13966,0.0468 -69.45977,25.4166 -78.32617,61.48242 -45.477351,4.98177 -79.931403,43.36977 -79.98633,89.11914 4.95e-4,49.57351 40.188211,89.76035 89.76172,89.75977 h 236.28125 c 40.58084,-5.4e-4 73.47797,-32.89768 73.47851,-73.47852 -0.0453,-36.2086 -26.46128,-66.987 -62.24414,-72.52344 -5.22025,-40.20961 -39.44516,-70.3156 -79.99218,-70.36523 -12.02238,0.0267 -23.88714,2.73718 -34.72852,7.93359 -15.25336,-20.09163 -39.01839,-31.90226 -64.24414,-31.92773 z"
         style="fill:#ffffff;fill-opacity:1;stroke:none" />
    </mask>
    <mask
       maskUnits="userSpaceOnUse"
       id="mask4639">
      <path
         sodipodi:nodetypes="ccczcc"
         inkscape:connector-curvature="0"
         id="path4641"
         d="M 128,416 H 384 L 382.95834,160.23135 C 382.95834,92.882463 330.56986,40.499995 255.72917,40.499995 180.88848,40.499995 128.5,92.882463 128.5,160.23135 Z"
         style="fill:#ffffff;fill-opacity:1;stroke:none;stroke-width:16;stroke-linecap:butt;stroke-linejoin:miter;stroke-miterlimit:4;stroke-dasharray:none;stroke-opacity:1" />
    </mask>
  </defs>
  <sodipodi:namedview
     id="base"
     pagecolor="#ffffff"
     bordercolor="#666666"
     borderopacity="1.0"
     inkscape:pageopacity="0.0"
     inkscape:pageshadow="2"
     inkscape:zoom="2.8284271"
     inkscape:cx="183.82923"
     inkscape:cy="269.41588"
     inkscape:document-units="px"
     inkscape:current-layer="layer1"
     showgrid="true"
     units="px"
     inkscape:pagecheckerboard="true"
     borderlayer="true"
     inkscape:showpageshadow="false"
     inkscape:snap-bbox="true"
     inkscape:snap-grids="true"
     inkscape:bbox-paths="true"
     inkscape:bbox-nodes="true"
     inkscape:snap-bbox-edge-midpoints="false"
     inkscape:snap-bbox-midpoints="false">
    <inkscape:grid
       type="xygrid"
       id="grid4554"
       empspacing="4" />
  </sodipodi:namedview>
  <metadata
     id="metadata5">
    <rdf:RDF>
      <cc:Work
         rdf:about="">
        <dc:format>image/svg+xml</dc:format>
        <dc:type
           rdf:resource="http://purl.org/dc/dcmitype/StillImage" />
        <dc:title />
      </cc:Work>
    </rdf:RDF>
  </metadata>
  <g
     inkscape:label="Layer 1"
     inkscape:groupmode="layer"
     id="layer1">
    <path
       sodipodi:nodetypes="ccccczcc"
       inkscape:connector-curvature="0"
       id="path4558"
       d="m 128,472 c -0.49894,3.99667 4.00849,8.51014 8,8 h 240 c 3.9915,0.51014 8.49894,-4.00333 8,-8 L 382.95834,160.23135 C 382.95834,92.882463 330.56986,40.499995 255.72917,40.499995 180.88848,40.499995 128.5,92.882463 128.5,160.23135 Z"
       style="fill:#859ab7;fill-opacity:1;stroke:none;stroke-width:16;stroke-linecap:butt;stroke-linejoin:miter;stroke-miterlimit:4;stroke-dasharray:none;stroke-opacity:1" />
    <path
       style="fill:#4173b4;fill-opacity:1;stroke:none;stroke-width:16;stroke-linecap:butt;stroke-linejoin:miter;stroke-miterlimit:4;stroke-dasharray:none;stroke-opacity:1"
       d="M 128,416 H 384 V 160 C 384,92.651113 330.56986,40.499995 255.72917,40.499995 180.88848,40.499995 128.5,92.882463 128.5,160.23135 Z"
       id="path4625"
       inkscape:connector-curvature="0"
       sodipodi:nodetypes="ccczcc" />
    <path
       sodipodi:nodetypes="ccczcccczcc"
       inkscape:connector-curvature="0"
       id="path4627"
       d="m 140,416 h 16 V 164 c 0,-36 32,-94 100,-94 68,0 100,58 100,94 v 252 h 16 V 164 C 372,108 328,54 256,54 184,54 140,108 140,164 Z"
       style="fill:#7ba8df;fill-opacity:1;stroke:none;stroke-width:16;stroke-linecap:butt;stroke-linejoin:miter;stroke-miterlimit:4;stroke-dasharray:none;stroke-opacity:1" />
    <path
       style="opacity:1;vector-effect:none;fill:#dae8f5;fill-opacity:1;fill-rule:evenodd;stroke:none;stroke-width:15.99999905;stroke-linecap:butt;stroke-linejoin:miter;stroke-miterlimit:4;stroke-dasharray:none;stroke-dashoffset:0;stroke-opacity:1"
       d="m 220,36 h 72 l -12,48 h -48 z"
       id="rect4634"
       inkscape:connector-curvature="0"
       sodipodi:nodetypes="ccccc"
       mask="url(#mask4639)" />
    <path
       style="fill:#b6c3d5;fill-opacity:1;stroke:none;stroke-width:15.99999905;stroke-linecap:butt;stroke-linejoin:miter;stroke-miterlimit:4;stroke-dasharray:none;stroke-opacity:1"
       d="M 168,480 H 344 V 160 c 0.3819,-24 -32.18644,-79.999553 -88,-80 -55.81356,-4.47e-4 -88,48 -87.99049,80 z"
       id="path4564"
       inkscape:connector-curvature="0"
       sodipodi:nodetypes="ccczcc" />
    <path
       style="opacity:1;vector-effect:none;fill:#859ab7;fill-opacity:1;stroke:none;stroke-width:15.99999905;stroke-linecap:butt;stroke-linejoin:miter;stroke-miterlimit:4;stroke-dasharray:none;stroke-dashoffset:0;stroke-opacity:1"
       d="m 200,268 v 144 c 0,24 24,40 56,40 32,0 56,-16 56,-40 V 268 Z"
       id="path4596"
       inkscape:connector-curvature="0"
       sodipodi:nodetypes="cczccc" />
    <rect
       style="opacity:1;vector-effect:none;fill:#dae8f5;fill-opacity:1;fill-rule:evenodd;stroke:none;stroke-width:16;stroke-linecap:butt;stroke-linejoin:miter;stroke-miterlimit:4;stroke-dasharray:none;stroke-dashoffset:0;stroke-opacity:1"
       id="rect4643"
       width="40"
       height="52"
       x="128"
       y="168" />
    <rect
       y="180"
       x="128"
       height="8"
       width="40"
       id="rect4645"
       style="opacity:1;vector-effect:none;fill:#2a70ae;fill-opacity:1;fill-rule:evenodd;stroke:none;stroke-width:15.99999905;stroke-linecap:butt;stroke-linejoin:miter;stroke-miterlimit:4;stroke-dasharray:none;stroke-dashoffset:0;stroke-opacity:1" />
    <rect
       style="opacity:1;vector-effect:none;fill:#2a70ae;fill-opacity:1;fill-rule:evenodd;stroke:none;stroke-width:15.99999905;stroke-linecap:butt;stroke-linejoin:miter;stroke-miterlimit:4;stroke-dasharray:none;stroke-dashoffset:0;stroke-opacity:1"
       id="rect4647"
       width="40"
       height="8"
       x="128"
       y="200" />
    <rect
       y="168"
       x="344"
       height="52"
       width="40"
       id="rect4649"
       style="opacity:1;vector-effect:none;fill:#dae8f5;fill-opacity:1;fill-rule:evenodd;stroke:none;stroke-width:16;stroke-linecap:butt;stroke-linejoin:miter;stroke-miterlimit:4;stroke-dasharray:none;stroke-dashoffset:0;stroke-opacity:1" />
    <rect
       style="opacity:1;vector-effect:none;fill:#2a70ae;fill-opacity:1;fill-rule:evenodd;stroke:none;stroke-width:15.99999905;stroke-linecap:butt;stroke-linejoin:miter;stroke-miterlimit:4;stroke-dasharray:none;stroke-dashoffset:0;stroke-opacity:1"
       id="rect4651"
       width="40"
       height="8"
       x="344"
       y="180" />
    <rect
       y="200"
       x="344"
       height="8"
       width="40"
       id="rect4653"
       style="opacity:1;vector-effect:none;fill:#2a70ae;fill-opacity:1;fill-rule:evenodd;stroke:none;stroke-width:15.99999905;stroke-linecap:butt;stroke-linejoin:miter;stroke-miterlimit:4;stroke-dasharray:none;stroke-dashoffset:0;stroke-opacity:1" />
    <rect
       y="168"
       x="180"
       height="52"
       width="152"
       id="rect4655"
       style="opacity:1;vector-effect:none;fill:#859ab7;fill-opacity:1;fill-rule:evenodd;stroke:none;stroke-width:16;stroke-linecap:butt;stroke-linejoin:miter;stroke-miterlimit:4;stroke-dasharray:none;stroke-dashoffset:0;stroke-opacity:1" />
    <rect
       style="opacity:1;vector-effect:none;fill:#dae8f5;fill-opacity:1;fill-rule:evenodd;stroke:none;stroke-width:16;stroke-linecap:butt;stroke-linejoin:miter;stroke-miterlimit:4;stroke-dasharray:none;stroke-dashoffset:0;stroke-opacity:1"
       id="rect4657"
       width="152"
       height="8"
       x="180"
       y="180" />
    <rect
       y="200"
       x="180"
       height="8"
       width="152"
       id="rect4659"
       style="opacity:1;vector-effect:none;fill:#dae8f5;fill-opacity:1;fill-rule:evenodd;stroke:none;stroke-width:16;stroke-linecap:butt;stroke-linejoin:miter;stroke-miterlimit:4;stroke-dasharray:none;stroke-dashoffset:0;stroke-opacity:1" />
    <rect
       style="opacity:1;vector-effect:none;fill:#859ab7;fill-opacity:1;fill-rule:evenodd;stroke:none;stroke-width:16;stroke-linecap:butt;stroke-linejoin:miter;stroke-miterlimit:4;stroke-dasharray:none;stroke-dashoffset:0;stroke-opacity:1"
       id="rect4661"
       width="128"
       height="32.000015"
       x="192"
       y="236" />
    <rect
       y="248"
       x="204"
       height="12"
       width="103.99999"
       id="rect4663"
       style="opacity:1;vector-effect:none;fill:#dae8f5;fill-opacity:1;fill-rule:evenodd;stroke:none;stroke-width:16;stroke-linecap:butt;stroke-linejoin:miter;stroke-miterlimit:4;stroke-dasharray:none;stroke-dashoffset:0;stroke-opacity:1" />
    <path
       sodipodi:nodetypes="cczccc"
       inkscape:connector-curvature="0"
       id="path4665"
       d="M 212,268 V 399.47826 C 212,424 224,436 256,436 c 32,0 44,-12 44,-36.52174 V 268 Z"
       style="opacity:1;vector-effect:none;fill:#dae8f5;fill-opacity:1;stroke:none;stroke-width:16;stroke-linecap:butt;stroke-linejoin:miter;stroke-miterlimit:4;stroke-dasharray:none;stroke-dashoffset:0;stroke-opacity:1" />
    <path
       style="fill:#7ba8df;stroke:none;stroke-width:0.99999994px;stroke-linecap:butt;stroke-linejoin:miter;stroke-opacity:1"
       d="m 188,168 h 136 c 0,-15.11111 -12,-68 -68,-68 -56,0 -68,52.88889 -68,68 z"
       id="path4667"
       inkscape:connector-curvature="0"
       sodipodi:nodetypes="cczc" />
    <path
       style="fill:none;fill-opacity:1;stroke:#024b82;stroke-width:8;stroke-linecap:round;stroke-linejoin:round;stroke-miterlimit:4;stroke-dasharray:none;stroke-opacity:1"
       d="M 165.73048,73.530768 C 142.25225,95.147342 128.5,125.72496 128.5,160.23135 L 128,472 c -0.49894,3.99667 4.00849,8.51014 8,8 h 240 c 3.9915,0.51014 8.49894,-4.00333 8,-8 v -16 m 0,-28 -1.04166,-267.76865 c 0,-67.348887 -52.38848,-119.731355 -127.22917,-119.731355 -28.39913,0 -53.56535,7.542589 -73.86298,20.583397"
       id="path4669"
       inkscape:connector-curvature="0"
       sodipodi:nodetypes="cccccccccsc" />
  </g>
</svg>
